HIERARCHY
ROOT Hips
{
    OFFSET 0.0 0.0 0.0
    CHANNELS 6 Xposition Yposition Zposition Zrotation Xrotation Yrotation
    JOINT LHipJoint
    {
        OFFSET 0.1 0.0 0.0
        CHANNELS 3 Zrotation Xrotation Yrotation
        JOINT LeftUpLeg
        {
            OFFSET 130.86583719408682 0.0 0.0
            CHANNELS 3 Zrotation Xrotation Yrotation
            JOINT LeftLeg
            {
                OFFSET 0.0 0.0 -426.689305464133
                CHANNELS 3 Zrotation Xrotation Yrotation
                JOINT LeftFoot
                {
                    OFFSET 0.0 0.0 -433.80487370070705
                    CHANNELS 3 Zrotation Xrotation Yrotation
                    End Site
                    {
                        OFFSET 0.0 -0.1 0.0
                    }
                }
            }
        }
    }
    JOINT LowerBack
    {
        OFFSET 0.0 0.0 0.1
        CHANNELS 3 Zrotation Xrotation Yrotation
        JOINT Spine
        {
            OFFSET 0.0 0.0 234.32902604407096
            CHANNELS 3 Zrotation Xrotation Yrotation
            JOINT Spine1
            {
                OFFSET 0.0 0.0 251.55163208351547
                CHANNELS 3 Zrotation Xrotation Yrotation
                JOINT LeftShoulder
                {
                    OFFSET 0.1 0.0 0.0
                    CHANNELS 3 Zrotation Xrotation Yrotation
                    JOINT LeftArm
                    {
                        OFFSET 147.0399365763712 0.0 0.0
                        CHANNELS 3 Zrotation Xrotation Yrotation
                        JOINT LeftForeArm
                        {
                            OFFSET 271.77264091002996 0.0 0.0
                            CHANNELS 3 Zrotation Xrotation Yrotation
                            JOINT LeftHand
                            {
                                OFFSET 224.53958999218935 0.0 0.0
                                CHANNELS 3 Zrotation Xrotation Yrotation
                                End Site
                                {
                                    OFFSET 0.1 0.0 0.0
                                }
                            }
                        }
                    }
                }
                JOINT Neck
                {
                    OFFSET 0.0 0.0 0.1
                    CHANNELS 3 Zrotation Xrotation Yrotation
                    JOINT Neck1
                    {
                        OFFSET 0.0 0.0 126.45058369038901
                        CHANNELS 3 Zrotation Xrotation Yrotation
                        End Site
                        {
                            OFFSET 0.0 0.0 108.308646808222
                        }
                    }
                }
                JOINT RightShoulder
                {
                    OFFSET -0.1 0.0 0.0
                    CHANNELS 3 Zrotation Xrotation Yrotation
                    JOINT RightArm
                    {
                        OFFSET -147.0399365763712 0.0 0.0
                        CHANNELS 3 Zrotation Xrotation Yrotation
                        JOINT RightForeArm
                        {
                            OFFSET -271.77264091002996 0.0 0.0
                            CHANNELS 3 Zrotation Xrotation Yrotation
                            JOINT RightHand
                            {
                                OFFSET -224.53958999218935 0.0 0.0
                                CHANNELS 3 Zrotation Xrotation Yrotation
                                End Site
                                {
                                    OFFSET -0.1 0.0 0.0
                                }
                            }
                        }
                    }
                }
            }
        }
    }
    JOINT RHipJoint
    {
        OFFSET -0.1 0.0 0.0
        CHANNELS 3 Zrotation Xrotation Yrotation
        JOINT RightUpLeg
        {
            OFFSET -130.86583719408682 0.0 0.0
            CHANNELS 3 Zrotation Xrotation Yrotation
            JOINT RightLeg
            {
                OFFSET 0.0 0.0 -426.689305464133
                CHANNELS 3 Zrotation Xrotation Yrotation
                JOINT RightFoot
                {
                    OFFSET 0.0 0.0 -433.80487370070705
                    CHANNELS 3 Zrotation Xrotation Yrotation
                    End Site
                    {
                        OFFSET 0.0 -0.1 0.0
                    }
                }
            }
        }
    }
}
MOTION
Frames: 7
Frame Time: 0.03333333333333333
0.0 0.0 872.5213967736765 -3.729616841348376 -5.975401826317081 1.3650910398860077 0.0 0.0 -4.969616689786745e-17 -0.10993210135217227 0.5798162207513723 1.0812693126883022 -3.5323040633089655 19.014878784474632 0.8928992547882594 1.5902773407317584e-15 -2.4848083448933722e-17 1.987846675914698e-16 0.0 0.0 -4.969616689786745e-17 -2.638903670387529 13.071999139932144 -6.593111822179793 -6.653293986405241 9.103263756015062e-16 -2.4576641643413384e-16 0.0 0.0 -9.93923337957349e-17 -41.72987522008298 1.7096655169016963 71.63688367470147 -25.939713649975044 6.198826497535061e-15 1.4276772676537173e-15 0.0 0.0 0.0 0.0 0.0 -9.93923337957349e-17 21.29413707302522 15.706453539002 -46.13049739201887 0.0 0.0 -9.93923337957349e-17 23.208905084594065 18.070467739234232 -73.90231244058602 45.155848882861854 2.4422817168628217e-15 5.87358258157622e-15 0.0 0.0 3.1805546814635168e-15 0.0 0.0 -4.969616689786745e-17 -1.4290832634353074 7.14443254047652 -3.845462596334365 -2.425694498198974 8.885152853165131 2.0503652169304765 0.0 0.0 0.0
0.0 0.0 872.5213967736765 -3.6389795186586174 -6.0400103294734215 1.4313709231363507 7.951386703658792e-16 -6.2120208622334304e-18 9.93923337957349e-17 -0.1249761426447609 0.6563872438520577 1.0142546189966577 -3.5491467101550733 18.995917097674273 0.961978303424485 0.0 0.0 0.0 7.951386703658792e-16 -6.2120208622334304e-18 9.93923337957349e-17 -2.637998625441707 13.078277010699031 -6.550558655677466 -6.718584841949887 1.4531668463448237e-15 -1.0098995663867971e-15 0.0 0.0 -9.93923337957349e-17 -41.62142435523743 1.6393176960115459 71.62799571533317 -25.931841042755313 -8.094842168733515e-15 2.0982610284525335e-14 0.0 0.0 0.0 0.0 0.0 -9.93923337957349e-17 21.19246797358644 15.900340623321826 -46.19091381253255 0.0 0.0 -9.93923337957349e-17 22.99337037009997 18.081906770976943 -73.98251585988943 45.29845388103771 6.123973205514271e-16 1.4676346760097708e-15 0.0 0.0 7.951386703658792e-16 7.951386703658792e-16 -6.2120208622334304e-18 9.93923337957349e-17 -1.4564710131920036 7.286226659178586 -3.935274638631629 -2.4189310332543528 8.810274937653277 2.0274618580868653 0.0 0.0 0.0
0.0 0.0 872.5213967736765 -3.5800739780479076 -6.109566233812482 1.4519052405472135 0.0 0.0 1.4908850069360235e-16 -0.13448831015816898 0.7048093330373729 1.035137445218364 -3.569625086526807 19.132777458914852 0.9530384372268873 0.0 0.0 0.0 0.0 0.0 1.4908850069360235e-16 -2.6439345608542473 13.105600656378604 -6.546024230781387 -6.845726949846711 1.2601243871254625e-15 5.73219605683596e-16 0.0 0.0 -9.93923337957349e-17 -41.849942969026664 1.6358585224957918 71.5985870083034 -25.836561145203877 8.589115389399801e-15 5.233199561011454e-15 0.0 0.0 1.5902773407317584e-15 0.0 0.0 -9.93923337957349e-17 21.193599841813526 16.02311166148264 -46.23203829273203 0.0 0.0 -9.93923337957349e-17 22.712949332718306 18.06075703238942 -73.9707028801462 45.45782588400159 3.54800097919153e-15 2.379057668075935e-16 0.0 0.0 -2.5842006786891076e-15 0.0 0.0 1.4908850069360235e-16 -1.476200241731549 7.38306429512949 -3.9542583858403186 -2.4168811633146676 8.789575268389944 2.0728488781532852 0.0 0.0 9.93923337957349e-17
0.0 0.0 872.5213967736765 -3.535678314529167 -6.235206964279617 1.654188297332517 0.0 0.0 9.93923337957349e-17 -0.14652953810263977 0.7778802023514015 0.821737220000304 -3.632617031377723 19.37006147851669 1.0106963575354155 0.0 0.0 0.0 0.0 0.0 9.93923337957349e-17 -2.6006793365557868 13.097693682080635 -6.646428160671594 -6.964228112794908 1.160322100498098e-15 5.684856286925754e-16 0.0 0.0 -2.981770013872047e-16 -42.02207007665416 1.7948240090742473 71.57567634198126 -26.125492861628103 -5.254839540565163e-15 8.575893085895357e-15 0.0 0.0 1.5902773407317584e-15 0.0 0.0 -2.981770013872047e-16 21.102976553616376 16.276230722247874 -46.27725855418014 0.0 0.0 -2.981770013872047e-16 22.465753296614327 18.122451518952758 -73.90644275166977 45.59267998749405 -1.0836240672987558e-15 5.630499546803486e-15 0.0 0.0 7.951386703658792e-16 0.0 0.0 9.93923337957349e-17 -1.4766780327859803 7.50207640875288 -4.264739782123823 -2.4521702786937953 8.83201960823849 2.237798425461206 1.5902773407317584e-15 1.3793457181406746e-33 9.93923337957349e-17
0.0 0.0 872.5213967736765 -3.3807550029475792 -6.287273883736369 1.7863659570134434 0.0 0.0 -1.987846675914698e-16 -0.1436729390205838 0.7721039589793874 0.698690005808392 -3.6775690440604034 19.596159204618687 1.0494892695707312 0.0 0.0 0.0 0.0 0.0 -1.987846675914698e-16 -2.565886493302725 13.075966741334895 -6.76600241276054 -7.102470379141712 1.3327145315144466e-15 -6.14376292898184e-16 0.0 0.0 2.981770013872047e-16 -41.97411981996066 1.9106290180956222 71.6210514257354 -26.49978821663706 1.1654570563784595e-14 6.011801923218784e-15 0.0 0.0 1.5902773407317584e-15 0.0 0.0 2.981770013872047e-16 20.932816245821932 16.57003880596394 -46.240045246525 0.0 0.0 2.981770013872047e-16 22.46692467743935 18.497613898934322 -73.7092087033406 45.975004060286686 -2.7947318974535704e-15 -6.587970820773589e-15 0.0 0.0 -7.951386703658792e-16 0.0 0.0 -1.987846675914698e-16 -1.4739727880013636 7.57600048347029 -4.489691901986345 -2.443140061588305 8.741291582798512 2.37412322455656 -1.077613842297402e-35 -1.2424041724466861e-17 -9.939233379573489e-17
0.0 0.0 872.5213967736765 -3.179048314121774 -6.386904980227404 1.9469610931213497 0.0 0.0 9.93923337957349e-17 -0.15353674522762198 0.8362527096894575 0.49091731476788514 -3.7201461961130176 19.73030019490725 1.121192525593633 8.620910738379216e-35 2.4848083448933722e-17 -3.9756933518293955e-16 0.0 0.0 9.93923337957349e-17 -2.5235857380680176 13.065439897852523 -6.893100072146385 -7.272696382757816 -7.762953065021729e-16 1.24537217284143e-15 8.534701630995424e-33 -8.945310041616142e-16 1.0933156717530838e-15 -41.92027203025228 1.9114467631157506 71.60196013272898 -26.70635111873406 8.9089386358855e-16 1.0018262770641184e-14 0.0 0.0 -1.5902773407317584e-15 8.534701630995424e-33 -8.945310041616142e-16 1.0933156717530838e-15 20.83021073546583 16.753454342287494 -46.30075907842245 8.534701630995424e-33 -8.945310041616142e-16 1.0933156717530838e-15 22.111165200263468 18.837411833197738 -73.40763774104403 46.4430233575377 -9.709207190525094e-15 1.569986628437387e-15 0.0 0.0 1.3914926731402886e-15 0.0 0.0 9.93923337957349e-17 -1.4786417832785155 7.719318163915619 -4.76719059488476 -2.4513512026057365 8.704575579771094 2.529448141481501 0.0 0.0 -9.93923337957349e-17
0.0 0.0 872.5213967736765 -3.0944585649128786 -6.456641729270889 2.1206678660329956 0.0 0.0 -3.4787316828507215e-16 -0.17234053486218945 0.9513140929773781 0.32472819612464904 -3.7247784032504296 19.769310341018326 1.1460647894868565 1.5902773407317584e-15 0.0 0.0 0.0 0.0 -3.4787316828507215e-16 -2.482528825073292 13.07131475657354 -7.066860836423415 -7.3936121331519224 -6.073459360468133e-17 -6.015216054158796e-16 4.310455369189608e-34 -9.939233379573489e-17 4.969616689786744e-16 -42.039735457297304 1.9260426215392799 71.62184445863953 -26.60405881917308 6.358486498823775e-15 1.457627701056628e-14 -6.3611093629270335e-15 8.827812596100317e-32 -1.5902773407317584e-15 4.310455369189608e-34 -9.939233379573489e-17 4.969616689786744e-16 20.843014505984133 16.91016733327873 -46.30990781735511 4.310455369189608e-34 -9.939233379573489e-17 4.969616689786744e-16 22.11084977607839 19.083524362330085 -73.08867192116743 46.740851978074204 0.0 0.0 0.0 0.0 5.963540027744094e-16 0.0 0.0 -3.4787316828507215e-16 -1.4831738592384887 7.87268745701212 -4.964301991988916 -2.418038743501847 8.57453327861302 2.537763166829768 0.0 0.0 0.0
